HIERARCHY
ROOT Hips
{
	OFFSET -0.001795 -0.223333 0.028219
	CHANNELS 6 Xposition Yposition Zposition Zrotation Yrotation Xrotation 
	JOINT LeftUpLeg
	{
		OFFSET 0.069520 -0.091406 -0.006815
		CHANNELS 3 Zrotation Yrotation Xrotation
		JOINT LeftLeg
		{
			OFFSET 0.034277 -0.375199 -0.004496
			CHANNELS 3 Zrotation Yrotation Xrotation
			JOINT LeftFoot
			{
				OFFSET -0.013596 -0.397961 -0.043693
				CHANNELS 3 Zrotation Yrotation Xrotation
				JOINT LeftToe
				{
					OFFSET 0.026358 -0.055791 0.119288
					CHANNELS 3 Zrotation Yrotation Xrotation
					End Site
					{
						OFFSET 0.000000 0.000000 0.000000
					}
				}
			}
		}
	}
	JOINT RightUpLeg
	{
		OFFSET -0.067670 -0.090522 -0.004320
		CHANNELS 3 Zrotation Yrotation Xrotation
		JOINT RightLeg
		{
			OFFSET -0.038290 -0.382569 -0.008850
			CHANNELS 3 Zrotation Yrotation Xrotation
			JOINT RightFoot
			{
				OFFSET 0.015774 -0.398415 -0.042312
				CHANNELS 3 Zrotation Yrotation Xrotation
				JOINT RightToe
				{
					OFFSET -0.025372 -0.048144 0.123348
					CHANNELS 3 Zrotation Yrotation Xrotation
					End Site
					{
						OFFSET 0.000000 0.000000 0.000000
					}
				}
			}
		}
	}
	JOINT Spine
	{
		OFFSET -0.002533 0.108963 -0.026696
		CHANNELS 3 Zrotation Yrotation Xrotation
		JOINT Spine1
		{
			OFFSET 0.005487 0.135180 0.001092
			CHANNELS 3 Zrotation Yrotation Xrotation
			JOINT Spine2
			{
				OFFSET 0.001457 0.052922 0.025425
				CHANNELS 3 Zrotation Yrotation Xrotation
				JOINT Neck
				{
					OFFSET -0.002778 0.213870 -0.042857
					CHANNELS 3 Zrotation Yrotation Xrotation
					JOINT Head
					{
						OFFSET 0.005152 0.064970 0.051349
						CHANNELS 3 Zrotation Yrotation Xrotation
						End Site
						{
							OFFSET 0.000000 0.000000 0.000000
						}
					}
				}
				JOINT LeftShoulder
				{
					OFFSET 0.078845 0.121749 -0.034090
					CHANNELS 3 Zrotation Yrotation Xrotation
					JOINT LeftArm
					{
						OFFSET 0.090977 0.030469 -0.008868
						CHANNELS 3 Zrotation Yrotation Xrotation
						JOINT LeftForeArm
						{
							OFFSET 0.259612 -0.012772 -0.027456
							CHANNELS 3 Zrotation Yrotation Xrotation
							JOINT LeftHand
							{
								OFFSET 0.249234 0.008986 -0.001171
								CHANNELS 3 Zrotation Yrotation Xrotation
								End Site
								{
									OFFSET 0.000000 0.000000 0.000000
								}
							}
						}
					}
				}
				JOINT RightShoulder
				{
					OFFSET -0.081759 0.118833 -0.038615
					CHANNELS 3 Zrotation Yrotation Xrotation
					JOINT RightArm
					{
						OFFSET -0.096012 0.032551 -0.009143
						CHANNELS 3 Zrotation Yrotation Xrotation
						JOINT RightForeArm
						{
							OFFSET -0.253742 -0.013329 -0.021401
							CHANNELS 3 Zrotation Yrotation Xrotation
							JOINT RightHand
							{
								OFFSET -0.255298 0.007772 -0.005559
								CHANNELS 3 Zrotation Yrotation Xrotation
								End Site
								{
									OFFSET 0.000000 0.000000 0.000000
								}
							}
						}
					}
				}
			}
		}
	}
}
MOTION
Frames: 13
Frame Time: 0.050000
-0.186922 0.937933 2.327858 -4.322056 0.264347 -3.943638 6.401465 -0.025531 0.012607 -4.198762 0.310779 54.046387 4.360866 11.671412 11.742688 0.000000 0.000000 0.000000 6.590020 1.554684 -10.237376 3.527700 -0.255581 18.617652 -3.639255 -9.624826 1.808465 0.000000 0.000000 0.000000 10.204459 -0.902663 7.174349 -1.661863 1.019351 -23.223402 -1.298313 1.167345 31.118390 6.216965 -1.919467 -25.833909 0.000000 0.000000 0.000000 -17.361579 -1.563917 -0.343647 -55.284883 -9.697644 -5.046828 -13.564711 -54.132307 10.653032 0.000000 0.000000 0.000000 22.933810 -12.766174 -8.526083 56.793956 -14.734087 -14.934773 3.450602 21.287354 1.709361 0.000000 0.000000 0.000000 
-0.193241 0.950734 2.400903 -3.525547 -2.594984 -4.006476 6.038570 -0.293977 -8.516672 -5.245154 1.931651 52.918114 6.092439 13.809994 8.127836 0.000000 0.000000 0.000000 5.731069 0.095372 -1.224153 3.073717 -0.112040 12.357861 -2.009263 -5.330054 0.624181 0.000000 0.000000 0.000000 8.876202 -0.811788 7.365635 -2.148779 1.086196 -23.145812 1.051167 5.817185 30.377538 7.278960 -2.168106 -24.726414 0.000000 0.000000 0.000000 -17.936734 0.052501 -1.954332 -55.762682 -2.327293 -8.278996 -18.723026 -45.705995 10.392331 0.000000 0.000000 0.000000 22.242365 -11.457791 -6.833444 57.288511 -7.161251 -11.659673 6.341024 26.071336 2.971912 0.000000 0.000000 0.000000 
-0.198674 0.954955 2.471048 -2.521924 -7.152586 -3.993919 5.406347 -0.476849 -15.192302 -6.115163 3.316436 45.116702 7.688845 16.131583 5.730540 0.000000 0.000000 0.000000 4.033881 -0.882879 6.313438 1.945795 0.001254 6.283412 -0.015172 -0.466555 0.684128 0.000000 0.000000 0.000000 7.700157 -0.756017 7.862454 -2.663010 1.139155 -24.196114 3.015489 11.946263 31.185168 8.104844 -1.903272 -25.863363 0.000000 0.000000 0.000000 -16.991443 1.669108 -3.391439 -55.568083 4.758692 -11.421159 -18.574829 -37.409074 7.832835 0.000000 0.000000 0.000000 21.271670 -9.829416 -4.856645 58.189143 1.451728 -7.970624 6.471267 32.369974 4.282605 0.000000 0.000000 0.000000 
-0.203666 0.949713 2.539370 -1.783905 -11.386836 -4.157277 6.335654 -0.193613 -19.560958 -6.621717 3.048598 31.467072 8.840299 17.886577 5.627996 0.000000 0.000000 0.000000 2.285613 -1.227009 12.128639 1.450385 0.010129 3.956917 1.271739 3.740303 -0.780732 0.000000 0.000000 0.000000 7.253500 -0.788930 8.962088 -4.279107 1.465744 -24.603485 4.821361 16.303776 31.303186 8.258299 -1.584662 -26.331672 0.000000 0.000000 0.000000 -16.914168 3.735051 -4.835413 -53.956333 12.066530 -14.130362 -16.066343 -31.180362 5.536157 0.000000 0.000000 0.000000 20.534120 -7.695216 -3.136215 57.414596 11.287266 -3.296983 3.129465 39.279194 4.600211 0.000000 0.000000 0.000000 
-0.208083 0.934651 2.607520 -1.594846 -16.565344 -3.971099 7.928022 0.494683 -21.165190 -4.928542 1.330114 13.959427 8.754994 17.261950 7.185605 0.000000 0.000000 0.000000 -0.219981 -0.885310 17.259928 1.236980 -0.024193 1.995849 2.830452 9.441019 -2.640597 0.000000 0.000000 0.000000 7.041289 -0.785193 9.705950 -4.894935 1.534847 -24.814634 5.857316 20.531803 31.282374 9.081098 -1.680872 -27.483554 0.000000 0.000000 0.000000 -15.870159 6.141412 -6.028712 -52.880443 20.407979 -17.326790 -13.141291 -25.564761 3.761049 0.000000 0.000000 0.000000 19.853711 -4.005083 -0.824061 54.964418 20.765161 1.191260 -4.197623 46.652290 2.813220 0.000000 0.000000 0.000000 
-0.211884 0.914623 2.678005 -1.623844 -20.486244 -2.850175 9.662276 1.355517 -23.139590 -2.590943 0.397706 -0.276716 8.401669 16.076866 9.291974 0.000000 0.000000 0.000000 -2.455035 -0.132250 20.388847 0.542052 0.124678 3.724724 2.407036 10.999530 -5.189622 0.000000 0.000000 0.000000 6.894376 -0.728353 9.188129 -5.891829 1.688278 -24.839253 6.908082 24.330910 31.146635 8.844594 -1.101459 -28.593458 0.000000 0.000000 0.000000 -15.323470 6.875075 -6.528723 -51.114655 25.791074 -18.865472 -9.155226 -19.574385 2.129687 0.000000 0.000000 0.000000 20.533194 -2.220007 0.487157 51.777315 30.028067 5.116756 -14.406796 50.689503 -1.304956 0.000000 0.000000 0.000000 
-0.215372 0.893059 2.754083 -1.251891 -22.429794 -2.998504 9.789812 1.834812 -25.711622 -3.111915 0.500733 1.123537 7.559772 14.426980 8.962815 0.000000 0.000000 0.000000 -4.930558 0.929210 24.266769 -0.296598 0.266739 4.732143 3.062371 12.394850 -4.961207 0.000000 0.000000 0.000000 4.950606 -0.600349 9.266629 -4.784092 1.377025 -24.781363 7.701583 27.239265 31.640821 8.579829 -0.476957 -29.905956 0.000000 0.000000 0.000000 -16.972565 5.891066 -6.899756 -48.755700 30.221693 -19.488474 -4.399197 -14.336888 0.950099 0.000000 0.000000 0.000000 21.139650 -1.788953 1.178110 50.868984 37.092096 8.315121 -21.419568 52.962288 -4.331390 0.000000 0.000000 0.000000 
-0.218294 0.880496 2.838361 -1.198442 -21.842592 -2.544279 8.443869 1.768281 -29.764277 -5.148629 1.537864 13.556387 6.674588 12.909779 10.934886 0.000000 0.000000 0.000000 -5.988068 1.410926 26.763108 -2.467325 0.825741 8.295590 3.698787 12.087191 -3.284661 0.000000 0.000000 0.000000 4.050483 -0.485916 7.726000 -6.781337 1.901274 -24.412335 8.335872 24.793305 31.059957 8.191418 -0.664931 -29.676028 0.000000 0.000000 0.000000 -15.962194 7.944722 -7.220034 -49.369740 31.080538 -20.097626 -2.160709 -11.864731 0.601981 0.000000 0.000000 0.000000 20.576230 -0.067886 1.638204 51.001348 37.343441 8.564108 -23.825755 53.994439 -5.924017 0.000000 0.000000 0.000000 
-0.219828 0.883995 2.926405 -0.481983 -21.041292 -1.547919 6.296142 1.239808 -33.071983 -5.704906 2.790724 24.481945 5.406736 11.139197 12.559520 0.000000 0.000000 0.000000 -7.130099 1.430470 23.965115 -4.720939 2.695249 19.289257 8.192668 11.788652 7.559737 0.000000 0.000000 0.000000 1.554617 -0.272738 5.464093 -5.041005 1.458195 -23.783405 7.598165 24.586756 31.793829 8.133548 -0.308851 -32.067343 0.000000 0.000000 0.000000 -18.064767 7.466200 -7.715836 -49.070874 29.217824 -19.051209 -1.765163 -11.810528 0.555718 0.000000 0.000000 0.000000 21.735745 -1.031819 1.252316 52.238378 32.594946 6.353541 -15.801117 57.666016 -1.967372 0.000000 0.000000 0.000000 
-0.220384 0.898917 3.009440 0.661918 -19.032238 -2.004749 2.771006 -0.382864 -29.725828 -5.963195 3.143798 27.197430 5.936444 12.144224 8.135128 0.000000 0.000000 0.000000 -7.548690 0.944820 18.282899 -3.637192 4.872272 33.382750 7.886441 4.899709 16.294046 0.000000 0.000000 0.000000 0.238572 -0.207223 5.640591 -5.026724 1.507440 -24.116782 5.861605 22.608892 31.637532 7.918786 -0.288689 -32.524229 0.000000 0.000000 0.000000 -19.649973 5.698554 -6.992080 -49.491131 23.802872 -17.019501 -1.046237 -14.684513 0.616273 0.000000 0.000000 0.000000 22.615600 -1.943783 0.576304 54.770774 24.983844 2.980225 -1.369624 53.198344 4.941254 0.000000 0.000000 0.000000 
-0.221309 0.918693 3.084845 1.082971 -16.760907 -2.685320 0.548090 -1.211550 -22.027387 -6.512382 2.743022 23.207178 5.830644 12.180272 6.284054 0.000000 0.000000 0.000000 -7.415799 0.443974 8.779521 1.500803 5.350215 49.144621 2.765264 -3.625706 17.220503 0.000000 0.000000 0.000000 0.713098 -0.259768 6.503033 -6.010963 1.809688 -23.581567 4.021194 19.865063 31.403383 8.544956 -0.772487 -33.312994 0.000000 0.000000 0.000000 -21.624734 2.731348 -5.422793 -49.944473 15.723783 -13.990767 -2.360520 -21.568683 1.195954 0.000000 0.000000 0.000000 23.503601 -3.153535 -0.462324 58.275166 18.074969 -0.080125 4.993298 43.430406 5.958912 0.000000 0.000000 0.000000 
-0.222936 0.936477 3.155350 1.031786 -13.940496 -3.595759 -2.059845 -1.317807 -13.188573 -4.367704 1.373528 18.346005 4.277461 9.440046 4.007185 0.000000 0.000000 0.000000 -7.265032 0.380646 0.063782 7.136519 2.318589 55.220097 -3.219436 -11.174013 9.554206 0.000000 0.000000 0.000000 1.312153 -0.350025 8.046936 -5.515641 1.734769 -23.760686 1.400234 15.920624 31.399394 9.245557 -1.687134 -32.280608 0.000000 0.000000 0.000000 -22.482490 0.472509 -3.559217 -49.616545 6.425232 -10.486466 -3.365194 -28.290042 1.984122 0.000000 0.000000 0.000000 24.771449 -3.897089 -1.535871 59.557039 11.058852 -3.650536 6.188238 35.621050 4.724735 0.000000 0.000000 0.000000 
-0.225725 0.948183 3.223825 0.139483 -10.902293 -3.905279 -4.130793 -0.534571 -3.818927 -1.007235 0.065023 11.496371 2.843769 6.513689 2.030980 0.000000 0.000000 0.000000 -5.817785 0.663791 -8.485828 8.954430 0.221301 54.176096 -5.584622 -14.804912 5.010855 0.000000 0.000000 0.000000 2.962462 -0.506044 8.759159 -5.792695 1.870773 -23.562986 -0.465655 10.469801 31.210912 8.124967 -1.918335 -30.794721 0.000000 0.000000 0.000000 -22.107609 -0.791116 -1.640935 -49.618441 -3.169798 -7.087442 -3.865671 -34.447878 2.952243 0.000000 0.000000 0.000000 23.709449 -4.892312 -3.189128 59.400081 2.250975 -7.795748 9.165417 28.049943 3.892054 0.000000 0.000000 0.000000 
